<svg id="Layer_1" enable-background="new 0 0 512.007 512.007" height="512" viewBox="0 0 512.007 512.007" width="512" xmlns="http://www.w3.org/2000/svg"><g><g clip-rule="evenodd" fill-rule="evenodd"><path d="m310.101 88.591 72.042 54.07v-112.658c0-11-9-20-20-20h-40c-11 0-20 9-20 20v53.196c2.703 1.643 5.359 3.441 7.958 5.392z" fill="#ffe6b4"/><path d="m382.143 142.661-72.042-54.07c-2.6-1.951-5.255-3.749-7.958-5.393-14.461-8.796-30.277-13.194-46.137-13.194-18.824 0-37.585 6.196-54.095 18.587l-181.939 136.553c-11.007 8.255-13.237 23.87-4.983 34.877 8.255 11.007 23.87 13.237 34.877 4.982l20.001-15.011 161.939-121.541c7.485-5.617 15.874-8.426 24.201-8.426s16.716 2.809 24.201 8.426l161.939 121.541 20.001 15.011c11.007 8.255 26.622 6.024 34.877-4.982 8.255-11.007 6.024-26.622-4.983-34.877z" fill="#ff5d7d"/><path d="m442.145 249.992-161.938-121.541c-7.484-5.617-15.874-8.426-24.201-8.426-8.326 0-16.716 2.809-24.201 8.426l-161.938 121.541v121.328c5.239-5.058 12.37-8.171 20.228-8.171 9.866 0 18.585 4.906 23.854 12.411 9.032-1.581 18.667 1.116 25.643 8.092s9.673 16.611 8.092 25.643c7.505 5.269 12.411 13.988 12.411 23.854s-4.906 18.585-12.411 23.854h58.322v-110c0-27.5 22.5-50 50-50s50 22.5 50 50v110h58.322c-7.505-5.269-12.411-13.988-12.411-23.854s4.906-18.585 12.411-23.854c-1.581-9.032 1.115-18.667 8.092-25.643 6.976-6.976 16.611-9.673 25.643-8.092 5.269-7.505 13.988-12.411 23.854-12.411 7.858 0 14.988 3.112 20.228 8.171zm-216.139-32.989c0-16.568 13.431-30 30-30s30 13.431 30 30-13.431 30-30 30-30-13.432-30-30z" fill="#ffe6b4"/><circle cx="256.006" cy="217.003" fill="#66e0f7" r="30"/><path d="m256.006 297.005c-27.5 0-50 22.5-50 50v110h100v-110c0-27.5-22.5-50-50-50z" fill="#c68a86"/><path d="m147.684 409.296c1.581-9.032-1.115-18.667-8.092-25.643-6.976-6.976-16.611-9.673-25.643-8.092-5.269-7.505-13.988-12.411-23.854-12.411-7.858 0-14.988 3.112-20.228 8.171-1.339 1.293-2.554 2.713-3.627 4.24-9.032-1.581-18.667 1.116-25.643 8.092s-9.673 16.611-8.092 25.643c-7.505 5.269-12.411 13.988-12.411 23.854s4.906 18.585 12.411 23.854h115.178c7.505-5.269 12.411-13.988 12.411-23.854.001-9.866-4.905-18.585-12.41-23.854z" fill="#cbe558"/><path d="m372.42 383.653c-6.976 6.976-9.673 16.611-8.092 25.643-7.505 5.269-12.411 13.988-12.411 23.854s4.906 18.585 12.411 23.854h115.178c7.505-5.269 12.411-13.988 12.411-23.854s-4.906-18.585-12.411-23.854c1.581-9.032-1.115-18.667-8.092-25.643-6.976-6.976-16.611-9.673-25.643-8.092-1.073-1.527-2.288-2.947-3.627-4.24-5.239-5.058-12.37-8.171-20.228-8.171-9.866 0-18.585 4.906-23.854 12.411-9.031-1.581-18.666 1.115-25.642 8.092z" fill="#cbe558"/><path d="m364.328 457.004h-58.322-100-58.322-115.179c-12.375 0-22.5 10.125-22.5 22.5s10.125 22.5 22.5 22.5h447.001c12.375 0 22.5-10.125 22.5-22.5s-10.125-22.5-22.5-22.5z" fill="#5cd0b3"/></g><g><path d="m496.981 452.124c3.181-5.732 4.936-12.243 4.936-18.974 0-10.694-4.393-20.854-11.981-28.175.189-10.541-3.888-20.831-11.451-28.394-7.07-7.07-16.532-11.095-26.341-11.432v-95.149l4.001 3.003c15.4 11.55 37.326 8.418 48.877-6.982 11.55-15.4 8.418-37.327-6.979-48.875l-105.901-79.483v-107.66c0-16.542-13.458-30-30-30h-40c-16.542 0-30 13.458-30 30v37.048c-11.557-4.637-23.746-7.046-36.137-7.046-21.37 0-42.151 7.12-60.098 20.589l-181.935 136.55c-7.46 5.595-12.295 13.76-13.614 22.992s1.037 18.425 6.632 25.885 13.76 12.295 22.992 13.614c1.675.239 3.348.357 5.01.357 7.5 0 14.768-2.409 20.877-6.991l3.998-3.001v95.144c-9.831.319-19.27 4.366-26.341 11.437-7.562 7.562-11.64 17.853-11.45 28.394-7.588 7.32-11.981 17.48-11.981 28.175 0 6.73 1.755 13.241 4.936 18.974-9.026 5.781-15.026 15.89-15.026 27.381 0 17.92 14.58 32.5 32.5 32.5h447.002c17.92 0 32.5-14.58 32.5-32.5 0-11.491-6-21.601-15.026-27.381zm-27.325-44.552c-.668 3.819.931 7.68 4.104 9.908 5.108 3.586 8.157 9.444 8.157 15.67 0 5.268-2.19 10.267-5.955 13.854h-108.092c-3.762-3.59-5.953-8.605-5.953-13.854 0-6.226 3.049-12.084 8.157-15.67 3.173-2.228 4.772-6.089 4.104-9.908-1.076-6.147.91-12.445 5.312-16.848s10.698-6.391 16.849-5.312c3.821.666 7.68-.931 9.908-4.104 3.586-5.108 9.444-8.157 15.67-8.157s12.084 3.049 15.67 8.157c2.228 3.173 6.089 4.768 9.908 4.104 6.15-1.077 12.446.91 16.848 5.312 4.403 4.402 6.389 10.7 5.313 16.848zm-157.513-377.569c0-5.514 4.486-10 10-10h40c5.514 0 10 4.486 10 10v92.649l-56.039-42.059c-1.304-.979-2.628-1.914-3.961-2.825zm-201.299 201.737c4.417-3.315 5.311-9.583 1.995-14.001-3.315-4.416-9.583-5.31-14.001-1.995l-54.973 41.26c-3.187 2.39-7.11 3.398-11.056 2.832-3.943-.563-7.431-2.628-9.82-5.814-2.39-3.187-3.396-7.113-2.833-11.056s2.628-7.431 5.818-9.823l181.94-136.554c14.456-10.85 31.086-16.585 48.092-16.585s33.637 5.735 48.092 16.585l181.942 136.555c6.578 4.934 7.916 14.299 2.982 20.877s-14.299 7.916-20.874 2.984l-181.938-136.552c-9.09-6.822-19.535-10.428-30.204-10.428s-21.113 3.606-30.204 10.428l-54.98 41.265c-4.417 3.315-5.31 9.583-1.995 14.001 3.315 4.417 9.585 5.312 14.001 1.995l54.979-41.265c5.6-4.203 11.893-6.424 18.198-6.424s12.598 2.222 18.198 6.424l157.942 118.541v99.533c-3.299-.896-6.734-1.373-10.228-1.373-10.694 0-20.854 4.393-28.175 11.98-10.538-.194-20.832 3.889-28.394 11.451-7.562 7.563-11.64 17.853-11.451 28.394-7.587 7.32-11.98 17.48-11.98 28.174 0 4.786.894 9.475 2.558 13.854h-28.47v-100c0-33.084-26.916-60-60-60s-60.001 26.916-60.001 60v100h-28.47c1.664-4.38 2.559-9.068 2.559-13.854 0-10.694-4.393-20.854-11.981-28.174.189-10.542-3.888-20.832-11.451-28.395-7.562-7.562-17.878-11.633-28.394-11.451-7.32-7.587-17.48-11.98-28.175-11.98-3.494 0-6.928.477-10.228 1.373v-99.532zm105.162 172.89h10c5.523 0 10-4.477 10-10s-4.477-10-10-10h-10v-37.626c0-22.056 17.944-40 40.001-40 22.056 0 40 17.944 40 40v100h-80v-42.374zm-177.754 12.85c3.173-2.228 4.772-6.089 4.104-9.908-1.076-6.147.91-12.446 5.312-16.848 4.403-4.401 10.701-6.388 16.849-5.312 3.82.666 7.68-.931 9.908-4.104 3.585-5.107 9.443-8.157 15.669-8.157s12.084 3.049 15.67 8.157c2.228 3.173 6.091 4.768 9.908 4.104 6.149-1.077 12.446.91 16.848 5.312 4.403 4.402 6.389 10.701 5.313 16.848-.668 3.819.931 7.68 4.104 9.908 5.108 3.586 8.158 9.445 8.158 15.67 0 5.25-2.191 10.265-5.953 13.854h-108.092c-3.766-3.588-5.955-8.587-5.955-13.854-.001-6.226 3.049-12.084 8.157-15.67zm441.255 74.524h-447.002c-6.893 0-12.5-5.607-12.5-12.5 0-6.888 5.599-12.491 12.485-12.499h.006c.006 0 .011-.001.017-.001h446.986c.006 0 .011.001.017.001h.006c6.886.008 12.485 5.612 12.485 12.499 0 6.893-5.607 12.5-12.5 12.5z"/><path d="m256.007 257.003c22.056 0 40-17.944 40-40s-17.944-40-40-40-40 17.944-40 40 17.943 40 40 40zm0-60c11.028 0 20 8.972 20 20s-8.972 20-20 20-20-8.972-20-20 8.972-20 20-20z"/><path d="m140.836 206.727c5.523 0 10-4.477 10-10s-4.477-10-10-10h-.008c-5.523 0-9.996 4.477-9.996 10s4.481 10 10.004 10z"/></g></g></svg>