<?xml version="1.0" encoding="iso-8859-1"?>
<!-- Generator: Adobe Illustrator 19.0.0, SVG Export Plug-In . SVG Version: 6.00 Build 0)  -->
<svg version="1.1" id="Capa_1" xmlns="http://www.w3.org/2000/svg" xmlns:xlink="http://www.w3.org/1999/xlink" x="0px" y="0px"
	 viewBox="0 0 512.001 512.001" style="enable-background:new 0 0 512.001 512.001;" xml:space="preserve">
<polygon style="fill:#BEF7F0;" points="448,256.128 64,256.128 10,502 502,502 "/>
<polygon style="fill:#12ADDD;" points="321.822,256.128 190.179,256.128 171.667,502 340.335,502 "/>
<path style="fill:#F4B831;" d="M414.579,254.579c0-88.366-71.634-160-160-160s-160,71.634-160,160H414.579z"/>
<path d="M511.768,499.855l-54-245.873c-1.008-4.587-5.071-7.854-9.768-7.854h-23.633c-4.419-89.828-78.884-161.55-169.789-161.55
	S89.209,156.3,84.789,246.127H64c-4.696,0-8.76,3.268-9.768,7.854l-54,245.873c-0.649,2.959,0.077,6.052,1.975,8.412
	C4.106,510.628,6.971,512,10,512h492c3.029,0,5.895-1.373,7.793-3.733C511.691,505.906,512.417,502.814,511.768,499.855z
	 M54.061,348h119.173l-4.668,62H40.444L54.061,348z M193.29,348h125.42l4.668,62H188.622L193.29,348z M194.796,328l4.658-61.873
	h113.092L317.205,328H194.796z M338.767,348H457.94l13.617,62H343.435L338.767,348z M453.547,328H337.261l-4.658-61.873h107.355
	L453.547,328z M254.578,104.578c79.874,0,145.359,62.756,149.757,141.549H104.821C109.219,167.334,174.705,104.578,254.578,104.578z
	 M72.042,266.128h107.355L174.739,328H58.453L72.042,266.128z M36.051,430H167.06l-4.668,62H22.435L36.051,430z M182.448,492
	l4.668-62h137.768l4.668,62H182.448z M349.609,492l-4.668-62h131.008l13.617,62H349.609z"/>
<path d="M256,70.656c5.522,0,10-4.478,10-10V10c0-5.522-4.478-10-10-10s-10,4.478-10,10v50.656
	C246,66.179,250.478,70.656,256,70.656z"/>
<path d="M146,92.81c1.853,3.208,5.213,5.002,8.67,5.002c1.696,0,3.416-0.433,4.99-1.342c4.783-2.762,6.422-8.878,3.66-13.66
	l-25.329-43.869c-2.762-4.781-8.876-6.421-13.66-3.66c-4.783,2.762-6.422,8.878-3.66,13.66L146,92.81z"/>
<path d="M431.534,171.998c1.696,0,3.415-0.433,4.99-1.342l43.869-25.327c4.783-2.761,6.422-8.877,3.66-13.66
	c-2.761-4.782-8.874-6.421-13.66-3.66l-43.869,25.327c-4.783,2.761-6.422,8.877-3.66,13.66
	C424.717,170.204,428.077,171.998,431.534,171.998z"/>
<path d="M31.605,145.329l43.871,25.327c1.575,0.909,3.294,1.342,4.99,1.342c3.456,0,6.818-1.794,8.67-5.002
	c2.762-4.783,1.123-10.899-3.66-13.66l-43.871-25.327c-4.784-2.762-10.9-1.122-13.66,3.66
	C25.183,136.452,26.822,142.569,31.605,145.329z"/>
<path d="M352.34,96.47c1.575,0.909,3.294,1.342,4.99,1.342c3.456,0,6.817-1.794,8.67-5.002l25.329-43.869
	c2.762-4.782,1.123-10.898-3.66-13.66c-4.784-2.762-10.898-1.123-13.66,3.66L348.68,82.81
	C345.918,87.592,347.557,93.708,352.34,96.47z"/>
<path d="M356.733,211.301c1.585,3.873,5.319,6.217,9.26,6.217c1.261,0,2.543-0.24,3.782-0.747c5.112-2.092,7.561-7.931,5.47-13.042
	l-0.026-0.064c-2.092-5.112-7.919-7.527-13.029-5.438C357.077,200.319,354.642,206.19,356.733,211.301z"/>
<path d="M254.578,143.667c32.783,0,63.713,14.394,84.859,39.49c1.979,2.348,4.806,3.557,7.652,3.557
	c2.275,0,4.563-0.772,6.438-2.353c4.224-3.559,4.763-9.867,1.204-14.091c-24.955-29.617-61.46-46.604-100.154-46.604
	c-5.522,0-10,4.478-10,10S249.056,143.667,254.578,143.667z"/>
<g>
</g>
<g>
</g>
<g>
</g>
<g>
</g>
<g>
</g>
<g>
</g>
<g>
</g>
<g>
</g>
<g>
</g>
<g>
</g>
<g>
</g>
<g>
</g>
<g>
</g>
<g>
</g>
<g>
</g>
</svg>
