<?xml version="1.0" encoding="iso-8859-1"?>
<!-- Generator: Adobe Illustrator 19.0.0, SVG Export Plug-In . SVG Version: 6.00 Build 0)  -->
<svg version="1.1" id="Capa_1" xmlns="http://www.w3.org/2000/svg" xmlns:xlink="http://www.w3.org/1999/xlink" x="0px" y="0px"
	 viewBox="0 0 512 512" style="enable-background:new 0 0 512 512;" xml:space="preserve">
<rect x="240.878" y="406.704" style="fill:#84B0B5;" width="30.248" height="77.595"/>
<g>
	<rect x="175.355" y="474.217" style="fill:#DCF3F4;" width="161.282" height="30.248"/>
	<polygon style="fill:#DCF3F4;" points="417.283,195.016 94.714,195.016 54.397,386.54 457.604,386.54 	"/>
</g>
<g>
	<polygon style="fill:#B0CDCF;" points="417.283,195.016 457.602,386.532 427.364,386.532 387.045,195.016 	"/>
	<rect x="306.4" y="474.217" style="fill:#B0CDCF;" width="30.238" height="30.248"/>
</g>
<rect x="54.394" y="386.539" style="fill:#25739E;" width="403.206" height="30.248"/>
<rect x="427.361" y="386.529" style="fill:#216486;" width="30.238" height="30.238"/>
<g>
	<polygon style="fill:#A8D2D7;" points="197.757,258.857 81.275,258.857 67.836,322.698 193.279,322.698 	"/>
	<polygon style="fill:#A8D2D7;" points="314.241,258.857 430.723,258.857 444.163,322.698 318.72,322.698 	"/>
	<polygon style="fill:#A8D2D7;" points="193.279,322.698 318.721,322.698 323.201,386.54 188.8,386.54 	"/>
	<polygon style="fill:#A8D2D7;" points="197.757,258.857 202.237,195.016 309.76,195.016 314.241,258.857 	"/>
</g>
<polygon style="fill:#84B0B5;" points="413.925,258.857 420.645,322.698 444.163,322.698 430.99,260.126 430.724,258.857 "/>
<circle style="fill:#FFD347;" cx="255.996" cy="78.098" r="30.238"/>
<path style="fill:#FFBE31;" d="M255.999,47.859c-3.535,0-6.927,0.612-10.081,1.728c11.744,4.153,20.161,15.348,20.161,28.514
	c0,13.167-8.417,24.362-20.161,28.514c3.153,1.115,6.545,1.728,10.081,1.728c16.702,0,30.242-13.54,30.242-30.242
	C286.241,61.399,272.702,47.859,255.999,47.859z"/>
<g>
	<path style="fill:#FFD347;" d="M255.999,25.158c-4.165,0-7.539-3.376-7.539-7.539V7.539c0-4.164,3.375-7.539,7.539-7.539
		s7.539,3.376,7.539,7.539v10.08C263.539,21.783,260.164,25.158,255.999,25.158z"/>
	<path style="fill:#FFD347;" d="M213.233,42.873c-1.929,0-3.859-0.736-5.331-2.208l-7.128-7.127
		c-2.945-2.944-2.945-7.718-0.001-10.663c2.945-2.944,7.719-2.944,10.663,0l7.128,7.127c2.945,2.944,2.945,7.718,0.001,10.663
		C217.092,42.137,215.162,42.873,213.233,42.873z"/>
	<path style="fill:#FFD347;" d="M195.519,85.639h-10.08c-4.165,0-7.539-3.376-7.539-7.539s3.375-7.539,7.539-7.539h10.08
		c4.165,0,7.539,3.376,7.539,7.539C203.058,82.265,199.683,85.639,195.519,85.639z"/>
	<path style="fill:#FFD347;" d="M206.105,135.535c-1.929,0-3.859-0.736-5.331-2.208c-2.945-2.944-2.945-7.718-0.001-10.663
		l7.127-7.127c2.945-2.944,7.719-2.944,10.662,0c2.945,2.944,2.945,7.718,0.001,10.663l-7.127,7.127
		C209.964,134.798,208.034,135.535,206.105,135.535z"/>
	<path style="fill:#FFD347;" d="M255.999,156.202c-4.165,0-7.539-3.376-7.539-7.539v-10.08c0-4.164,3.375-7.539,7.539-7.539
		s7.539,3.376,7.539,7.539v10.08C263.539,152.826,260.164,156.202,255.999,156.202z"/>
	<path style="fill:#FFD347;" d="M305.894,135.535c-1.93,0-3.859-0.736-5.332-2.209l-7.127-7.127
		c-2.944-2.944-2.944-7.718,0.001-10.663c2.944-2.944,7.718-2.942,10.663,0l7.127,7.127c2.944,2.944,2.944,7.718-0.001,10.663
		C309.753,134.798,307.823,135.535,305.894,135.535z"/>
	<path style="fill:#FFD347;" d="M326.561,85.64h-10.08c-4.164,0-7.539-3.376-7.539-7.539c0-4.164,3.376-7.539,7.539-7.539h10.08
		c4.165,0,7.539,3.376,7.539,7.539C334.1,82.265,330.726,85.64,326.561,85.64z"/>
	<path style="fill:#FFD347;" d="M298.767,42.873c-1.929,0-3.859-0.736-5.331-2.208c-2.945-2.944-2.945-7.718-0.001-10.663
		l7.127-7.127c2.945-2.944,7.719-2.944,10.662,0c2.945,2.944,2.945,7.718,0.001,10.663l-7.127,7.127
		C302.626,42.137,300.696,42.873,298.767,42.873z"/>
</g>
<polygon style="fill:#84B0B5;" points="413.926,322.698 444.164,322.698 430.724,258.857 400.486,258.857 "/>
<path d="M255.999,115.881c20.833,0,37.781-16.949,37.781-37.78c0-20.833-16.949-37.781-37.781-37.781s-37.781,16.949-37.781,37.781
	C218.218,98.933,235.167,115.881,255.999,115.881z M255.999,55.398c12.518,0,22.703,10.184,22.703,22.703
	s-10.184,22.702-22.703,22.702c-12.518,0-22.703-10.184-22.703-22.702C233.297,65.583,243.481,55.398,255.999,55.398z"/>
<path d="M255.999,25.158c4.165,0,7.539-3.376,7.539-7.539V7.539c0-4.164-3.375-7.539-7.539-7.539s-7.539,3.376-7.539,7.539v10.08
	C248.46,21.783,251.835,25.158,255.999,25.158z"/>
<path d="M207.902,40.665c1.472,1.472,3.402,2.208,5.331,2.208c1.929,0,3.859-0.736,5.332-2.209
	c2.944-2.944,2.944-7.718-0.001-10.663l-7.128-7.127c-2.943-2.944-7.717-2.943-10.663,0c-2.944,2.944-2.944,7.718,0.001,10.663
	L207.902,40.665z"/>
<path d="M185.439,85.639h10.08c4.165,0,7.539-3.376,7.539-7.539s-3.375-7.539-7.539-7.539h-10.08c-4.165,0-7.539,3.376-7.539,7.539
	C177.9,82.265,181.274,85.639,185.439,85.639z"/>
<path d="M207.9,115.536l-7.127,7.127c-2.944,2.944-2.944,7.718,0,10.662c1.473,1.472,3.403,2.209,5.332,2.209
	c1.929,0,3.859-0.736,5.332-2.209l7.127-7.127c2.944-2.944,2.944-7.718,0-10.662C215.619,112.592,210.846,112.592,207.9,115.536z"/>
<path d="M248.46,138.582v10.08c0,4.164,3.375,7.539,7.539,7.539s7.539-3.376,7.539-7.539v-10.08c0-4.164-3.375-7.539-7.539-7.539
	S248.46,134.418,248.46,138.582z"/>
<path d="M293.436,115.536c-2.945,2.944-2.945,7.718-0.001,10.663l7.127,7.127c1.473,1.472,3.402,2.209,5.332,2.209
	c1.929,0,3.859-0.736,5.331-2.208c2.945-2.944,2.945-7.718,0.001-10.663l-7.127-7.127
	C301.154,112.593,296.38,112.592,293.436,115.536z"/>
<path d="M308.942,78.101c0,4.164,3.376,7.539,7.539,7.539h10.08c4.165,0,7.539-3.376,7.539-7.539c0-4.164-3.375-7.539-7.539-7.539
	h-10.08C312.318,70.562,308.942,73.937,308.942,78.101z"/>
<path d="M298.767,42.873c1.929,0,3.859-0.736,5.332-2.209l7.127-7.127c2.944-2.944,2.944-7.718-0.001-10.663
	c-2.943-2.944-7.717-2.943-10.662,0l-7.127,7.127c-2.944,2.944-2.944,7.718,0.001,10.663
	C294.908,42.137,296.838,42.873,298.767,42.873z"/>
<path d="M465.142,386.638v-0.099c0-0.123-0.012-0.241-0.018-0.363c-0.006-0.131-0.007-0.26-0.02-0.391
	c-0.026-0.265-0.066-0.527-0.12-0.783c-0.001-0.005-0.001-0.011-0.003-0.016l-13.426-63.776c-0.005-0.024-0.01-0.048-0.015-0.072
	l-13.426-63.772c-0.004-0.022-0.009-0.044-0.014-0.066l-13.439-63.838c-0.734-3.489-3.812-5.986-7.378-5.986H94.714
	c-3.566,0-6.643,2.497-7.378,5.986l-13.437,63.83c-0.006,0.027-0.011,0.054-0.017,0.081l-13.425,63.775
	c-0.004,0.018-0.008,0.036-0.012,0.054L47.02,384.981c-0.056,0.269-0.1,0.545-0.126,0.824c-0.006,0.063-0.005,0.126-0.009,0.189
	c-0.013,0.181-0.027,0.361-0.027,0.546v30.243c0,4.164,3.375,7.539,7.539,7.539h178.941v42.356h-57.982
	c-4.165,0-7.539,3.376-7.539,7.539v22.704H94.715c-4.165,0-7.539,3.376-7.539,7.539c0,4.164,3.375,7.539,7.539,7.539h80.641h161.285
	h80.63c4.165,0,7.539-3.376,7.539-7.539c0-4.164-3.375-7.539-7.539-7.539h-73.091v-22.704c0-4.164-3.375-7.539-7.539-7.539H278.66
	v-42.356h178.942c4.165,0,7.539-3.376,7.539-7.539v-30.108C465.142,386.662,465.142,386.65,465.142,386.638z M87.393,266.396
	h102.278l-3.422,48.763H77.127L87.393,266.396z M204.787,266.396h102.425l3.423,48.763h-109.27L204.787,266.396z M302.732,202.555
	l3.423,48.763h-100.31l3.422-48.763H302.732z M434.873,315.159H325.75l-3.422-48.763h102.279L434.873,315.159z M311.692,330.238
	L315.115,379H196.886l3.421-48.763H311.692z M330.23,379.001l-3.423-48.763h111.24l10.266,48.763H330.23z M421.432,251.318H321.269
	l-3.422-48.763h93.319L421.432,251.318z M100.832,202.555h93.318l-3.422,48.763H90.566L100.832,202.555z M329.103,496.921H182.896
	v-15.164h57.982h30.244h57.982V496.921z M263.582,466.678h-15.165v-42.356h15.165V466.678z M450.063,409.244H271.209
	c-0.029,0-0.058-0.004-0.087-0.004h-30.244c-0.029,0-0.058,0.004-0.087,0.004H61.936V394.08h35.915c4.165,0,7.539-3.376,7.539-7.539
	c0-4.164-3.375-7.539-7.539-7.539H63.688l10.265-48.763h111.238l-3.421,48.763h-51.314h-0.001c-4.165,0-7.539,3.376-7.539,7.539
	c0,4.164,3.375,7.539,7.539,7.539h0.001h58.337c0.005,0,0.009,0,0.014,0c0.003,0,0.007,0,0.01,0h134.367c0.004,0,0.007,0,0.01,0
	c0.005,0,0.009,0,0.014,0h126.854v15.164H450.063z"/>
<g>
</g>
<g>
</g>
<g>
</g>
<g>
</g>
<g>
</g>
<g>
</g>
<g>
</g>
<g>
</g>
<g>
</g>
<g>
</g>
<g>
</g>
<g>
</g>
<g>
</g>
<g>
</g>
<g>
</g>
</svg>
