<?xml version="1.0" encoding="iso-8859-1"?>
<!-- Generator: Adobe Illustrator 19.0.0, SVG Export Plug-In . SVG Version: 6.00 Build 0)  -->
<svg version="1.1" id="Capa_1" xmlns="http://www.w3.org/2000/svg" xmlns:xlink="http://www.w3.org/1999/xlink" x="0px" y="0px"
	 viewBox="0 0 512 512" style="enable-background:new 0 0 512 512;" xml:space="preserve">
<g>
	<g>
		<path d="M510.373,490.237l-97.472-192.978c-2.552-5.051-7.729-8.237-13.388-8.237H112.485c-5.659,0-10.836,3.186-13.388,8.237
			L1.626,490.237C-3.402,500.193,3.841,512,15.013,512h481.972C508.14,512,515.409,500.21,510.373,490.237z M270.999,319.022
			h119.287l33.583,66.489h-152.87V319.022z M241,482H39.394l33.583-66.489H241V482z M241,385.511H88.13l33.583-66.489H241V385.511z
			 M270.998,482v-66.489h168.023L472.605,482H270.998z"/>
	</g>
</g>
<g>
	<g>
		<path d="M255.999,77.011c-30.326,0-54.997,24.673-54.997,55c0,30.327,24.672,55,54.997,55s54.997-24.673,54.997-55
			C310.996,101.684,286.325,77.011,255.999,77.011z M255.999,157.011c-13.784,0-24.999-11.215-24.999-25
			c0-13.785,11.215-25,24.999-25c13.784,0,24.999,11.215,24.999,25C280.998,145.796,269.784,157.011,255.999,157.011z"/>
	</g>
</g>
<g>
	<g>
		<path d="M255.999,0C247.715,0,241,6.716,241,15v33.007c0,8.284,6.716,15,14.999,15c8.284,0,14.999-6.716,14.999-15V15
			C270.998,6.716,264.283,0,255.999,0z"/>
	</g>
</g>
<g>
	<g>
		<path d="M255.999,201.016c-8.284,0-14.999,6.715-14.999,15v33.007c0,8.284,6.715,15,14.999,15c8.284,0,14.999-6.716,14.999-15
			v-33.007C270.998,207.732,264.283,201.016,255.999,201.016z"/>
	</g>
</g>
<g>
	<g>
		<path d="M207.209,62.005l-23.337-23.339c-5.857-5.858-15.355-5.857-21.212,0c-5.858,5.858-5.858,15.355,0,21.213l23.337,23.339
			c5.856,5.858,15.353,5.858,21.212,0C213.067,77.36,213.067,67.863,207.209,62.005z"/>
	</g>
</g>
<g>
	<g>
		<path d="M349.339,204.144l-23.338-23.339c-5.856-5.858-15.354-5.857-21.211,0c-5.858,5.858-5.858,15.355,0,21.213l23.337,23.339
			c5.857,5.858,15.353,5.858,21.212,0C355.197,219.499,355.197,210.002,349.339,204.144z"/>
	</g>
</g>
<g>
	<g>
		<path d="M171.999,117.011h-33.005c-8.284,0-14.999,6.716-14.999,15s6.716,15,14.999,15h33.005c8.284,0,14.999-6.716,14.999-15
			S180.283,117.011,171.999,117.011z"/>
	</g>
</g>
<g>
	<g>
		<path d="M373.004,117.011h-33.005c-8.283,0-14.999,6.716-14.999,15s6.715,15,14.999,15h33.005c8.284,0,14.999-6.716,14.999-15
			S381.288,117.011,373.004,117.011z"/>
	</g>
</g>
<g>
	<g>
		<path d="M207.208,180.805c-5.857-5.858-15.354-5.858-21.211,0l-23.338,23.339c-5.858,5.858-5.858,15.355,0,21.213
			c5.857,5.857,15.354,5.858,21.212,0l23.337-23.339C213.066,196.16,213.066,186.663,207.208,180.805z"/>
	</g>
</g>
<g>
	<g>
		<path d="M349.34,38.666c-5.857-5.857-15.355-5.858-21.212,0L304.79,62.005c-5.858,5.858-5.858,15.355,0,21.213
			c5.857,5.857,15.355,5.858,21.212,0l23.338-23.339C355.198,54.021,355.198,44.524,349.34,38.666z"/>
	</g>
</g>
<g>
</g>
<g>
</g>
<g>
</g>
<g>
</g>
<g>
</g>
<g>
</g>
<g>
</g>
<g>
</g>
<g>
</g>
<g>
</g>
<g>
</g>
<g>
</g>
<g>
</g>
<g>
</g>
<g>
</g>
</svg>
