<svg id="Filled" height="512" viewBox="0 0 512 512" width="512" xmlns="http://www.w3.org/2000/svg"><path d="m496 112c0 7.879-16.764 13.451-18.707 20.717-2.009 7.519 9.663 20.713 5.855 27.3-3.864 6.677-21.161 3.137-26.58 8.556s-1.879 22.716-8.556 26.58c-6.583 3.808-19.777-7.865-27.3-5.855-7.263 1.937-12.834 18.702-20.712 18.702s-13.451-16.764-20.718-18.706c-7.518-2.01-20.712 9.663-27.3 5.854-6.678-3.864-3.137-21.161-8.556-26.58s-22.716-1.879-26.58-8.556c-3.808-6.583 7.865-19.777 5.855-27.295-1.938-7.268-18.701-12.839-18.701-20.717s16.764-13.451 18.706-20.717c2.01-7.519-9.663-20.713-5.854-27.3 3.863-6.677 21.16-3.137 26.58-8.556s1.878-22.716 8.556-26.579c6.583-3.809 19.777 7.864 27.295 5.854 7.266-1.939 12.837-18.702 20.717-18.702s13.45 16.764 20.717 18.707c7.519 2.009 20.713-9.664 27.3-5.855 6.677 3.864 3.136 21.161 8.556 26.58s22.716 1.879 26.579 8.556c3.809 6.583-7.864 19.777-5.855 27.295 1.938 7.266 18.703 12.837 18.703 20.717z" fill="#ff750a"/><circle cx="399.999" cy="111.999" fill="#ffd33a" r="48"/><path d="m232 56a24.326 24.326 0 0 0 -3.237.223 40.009 40.009 0 0 0 -73.526 0 24.35 24.35 0 0 0 -3.237-.223 24 24 0 1 0 12.148 44.7 39.964 39.964 0 0 0 55.7 0 24 24 0 1 0 12.152-44.7z" fill="#a3d4f7"/><path d="m120 96a24.326 24.326 0 0 0 -3.237.223 40.009 40.009 0 0 0 -73.526 0 24.35 24.35 0 0 0 -3.237-.223 24 24 0 1 0 12.148 44.7 39.964 39.964 0 0 0 55.7 0 24 24 0 1 0 12.152-44.7z" fill="#a3d4f7"/><path d="m256 344v152h-32-208v-152l104-152h32z" fill="#f0dfce"/><path d="m448 336h-224l-28.89-40-11.55-16-23.12-32-11.55-16-28.89-40h224l28.89 40 11.55 16 23.12 32 11.55 16z" fill="#3397e8"/><path d="m224 336h224v160h-224z" fill="#fbe9d8"/><path d="m288 384h96v48h-96z" fill="#996046"/><path d="m328 384h16v48h-16z" fill="#b37a60"/><path d="m88 384h64v112h-64z" fill="#996046"/><path d="m491.122 94.234c-1.963-1.446-5.172-3.811-6.061-5.075.09-1.6 1.763-5.446 2.786-7.8 2.79-6.417 6.263-14.4 2.226-21.381-4.079-7.05-12.8-8.029-19.811-8.815-2.5-.28-6.583-.739-8-1.428-.69-1.418-1.148-5.5-1.428-8-.786-7.009-1.766-15.731-8.814-19.809-6.978-4.04-14.965-.567-21.383 2.225-2.35 1.022-6.2 2.7-7.8 2.785-1.265-.889-3.629-4.1-5.075-6.061-4.224-5.734-9.485-12.875-17.762-12.875s-13.538 7.141-17.766 12.878c-1.446 1.963-3.811 5.172-5.075 6.061-1.6-.09-5.446-1.763-7.8-2.786-6.416-2.791-14.4-6.261-21.381-2.226-7.05 4.079-8.029 12.8-8.815 19.811-.28 2.5-.739 6.583-1.428 8-1.418.69-5.5 1.148-8 1.428-7.009.786-15.731 1.766-19.809 8.814-4.039 6.979-.566 14.965 2.225 21.383 1.022 2.349 2.695 6.2 2.785 7.8-.889 1.265-4.1 3.629-6.061 5.075-5.734 4.224-12.875 9.485-12.875 17.762s7.141 13.538 12.878 17.766c1.963 1.446 5.172 3.811 6.061 5.075-.09 1.6-1.763 5.446-2.786 7.8-2.79 6.417-6.263 14.4-2.226 21.381 4.079 7.05 12.8 8.029 19.811 8.815 2.5.28 6.583.739 8 1.428.69 1.418 1.148 5.5 1.428 8 .064.568.131 1.151.2 1.738h-219.366a8 8 0 0 0 -6.6 3.486h-.006l-104 152a8.006 8.006 0 0 0 -1.394 4.511v152a8 8 0 0 0 8 8h432a8 8 0 0 0 8-8v-160a7.95 7.95 0 0 0 -1.521-4.679l.006-.005-92.8-128.495a69.6 69.6 0 0 0 7.68-2.975c2.35-1.022 6.2-2.695 7.8-2.785 1.265.889 3.629 4.1 5.075 6.061 4.222 5.737 9.483 12.878 17.76 12.878s13.538-7.141 17.766-12.878c1.446-1.963 3.811-5.172 5.075-6.061 1.6.09 5.446 1.763 7.8 2.786 6.417 2.791 14.4 6.262 21.381 2.226 7.05-4.079 8.029-12.8 8.815-19.811.28-2.5.739-6.583 1.428-8 1.418-.69 5.5-1.148 8-1.428 7.009-.786 15.731-1.766 19.809-8.814 4.039-6.979.566-14.965-2.225-21.383-1.022-2.349-2.695-6.2-2.785-7.8.889-1.265 4.1-3.629 6.061-5.075 5.734-4.224 12.875-9.485 12.875-17.762s-7.141-13.538-12.878-17.766zm-286.143 201.766h60.264l23.111 32h-60.264zm97.6-48 23.112 32h-52.267l-23.112-32zm-63.819-16-23.111-32h52.261l23.111 32zm14.931 48h-60.267l-23.111-32h60.263zm54.4 48-23.111-32h52.264l23.111 32zm72 0-23.111-32h52.264l23.111 32zm-34.666-48-23.112-32h52.264l23.111 32zm-34.667-48-23.111-32h52.263l23.111 32zm-114.848-32 23.111 32h-60.264l-23.111-32zm-171.91 146.475 96.177-140.566 95.823 132.677v149.414h-56v-104a8 8 0 0 0 -8-8h-64a8 8 0 0 0 -8 8v104h-56zm120 141.525h-48v-96h48zm296 0h-208v-144h208zm41.631-371.115c-5.134 3.783-10.443 7.695-12.066 13.766-1.667 6.237 1.136 12.681 3.609 18.367a53 53 0 0 1 2.592 6.759 51.965 51.965 0 0 1 -7.288 1.157c-6.119.686-13.053 1.463-17.567 5.978s-5.292 11.448-5.978 17.566a52.154 52.154 0 0 1 -1.156 7.289 52.95 52.95 0 0 1 -6.759-2.593c-5.687-2.473-12.137-5.278-18.367-3.609-6.072 1.623-9.983 6.932-13.766 12.066a47.76 47.76 0 0 1 -4.885 5.969 47.76 47.76 0 0 1 -4.885-5.967c-3.783-5.134-7.695-10.443-13.766-12.066a15.247 15.247 0 0 0 -3.952-.5c-4.96 0-9.924 2.159-14.415 4.112a53.054 53.054 0 0 1 -6.759 2.592 51.965 51.965 0 0 1 -1.157-7.288c-.686-6.119-1.463-13.053-5.978-17.567s-11.448-5.292-17.566-5.978a52.154 52.154 0 0 1 -7.289-1.156 52.95 52.95 0 0 1 2.593-6.759c2.473-5.686 5.276-12.131 3.609-18.367-1.623-6.072-6.932-9.983-12.066-13.766a47.76 47.76 0 0 1 -5.969-4.89 47.76 47.76 0 0 1 5.967-4.885c5.134-3.783 10.443-7.695 12.066-13.766 1.667-6.237-1.136-12.681-3.609-18.367a53 53 0 0 1 -2.592-6.759 51.965 51.965 0 0 1 7.288-1.157c6.119-.686 13.053-1.463 17.567-5.978s5.292-11.448 5.978-17.566a52.154 52.154 0 0 1 1.156-7.289 52.95 52.95 0 0 1 6.759 2.593c5.687 2.474 12.137 5.277 18.367 3.609 6.072-1.623 9.983-6.932 13.766-12.066a47.76 47.76 0 0 1 4.887-5.969 47.76 47.76 0 0 1 4.885 5.967c3.783 5.134 7.695 10.443 13.766 12.066 6.235 1.667 12.681-1.135 18.367-3.609a53.054 53.054 0 0 1 6.759-2.592 51.965 51.965 0 0 1 1.157 7.288c.686 6.119 1.463 13.053 5.978 17.567s11.448 5.292 17.566 5.978a52.154 52.154 0 0 1 7.289 1.156 52.95 52.95 0 0 1 -2.593 6.759c-2.473 5.686-5.276 12.131-3.609 18.367 1.623 6.072 6.932 9.983 12.066 13.766a47.76 47.76 0 0 1 5.969 4.887 47.76 47.76 0 0 1 -5.969 4.885z"/><path d="m400 56a56 56 0 1 0 56 56 56.063 56.063 0 0 0 -56-56zm0 96a40 40 0 1 1 40-40 40.045 40.045 0 0 1 -40 40z"/><path d="m104 320h16l-14.4 19.2a8 8 0 1 0 12.8 9.6l24-32a8 8 0 0 0 -6.4-12.8h-16l14.4-19.2a8 8 0 1 0 -12.8-9.6l-24 32a8 8 0 0 0 6.4 12.8z"/><path d="m288 440h96a8 8 0 0 0 8-8v-48a8 8 0 0 0 -8-8h-96a8 8 0 0 0 -8 8v48a8 8 0 0 0 8 8zm88-16h-32v-32h32zm-80-32h32v32h-32z"/><path d="m40 152a32.017 32.017 0 0 0 10.827-1.888 47.979 47.979 0 0 0 58.346 0 31.994 31.994 0 0 0 41.8-38.138c.341.011.681.026 1.025.026a32.017 32.017 0 0 0 10.827-1.888 47.979 47.979 0 0 0 58.346 0 32 32 0 1 0 12.429-62.073 48.011 48.011 0 0 0 -83.2 0 32 32 0 0 0 -29.724 38.517 47.985 47.985 0 0 0 -82.276 1.483 32 32 0 0 0 1.6 63.961zm112-88a16.217 16.217 0 0 1 2.162.151 8 8 0 0 0 8.425-4.769 32.009 32.009 0 0 1 58.826 0 8 8 0 0 0 8.425 4.769 16.217 16.217 0 0 1 2.162-.151 16 16 0 1 1 -8.091 29.8 8 8 0 0 0 -9.629 1.155 31.966 31.966 0 0 1 -44.56 0 8 8 0 0 0 -9.629-1.155 16 16 0 1 1 -8.091-29.8zm-112 40a16.217 16.217 0 0 1 2.162.151 8 8 0 0 0 8.425-4.769 32.009 32.009 0 0 1 58.826 0 8 8 0 0 0 8.425 4.769 16.217 16.217 0 0 1 2.162-.151 16 16 0 1 1 -8.091 29.8 8 8 0 0 0 -9.629 1.155 31.966 31.966 0 0 1 -44.56 0 8 8 0 0 0 -9.629-1.155 16 16 0 1 1 -8.091-29.8z"/></svg>